<?xml version="1.0" encoding="UTF-8"?>
<svg enable-background="new 0 0 48 48" version="1.1" viewBox="0 0 48 48" xmlns="http://www.w3.org/2000/svg">
 <style type="text/css">.st0{fill:#00C8F6;}</style>
 <path class="st0" d="m42.2 27.1c0.1-0.6 0-1.3 0-2 0-3-0.1-5.9-1.6-8.5 1.6-4.2 1.5-7.3-0.5-9.3-1-0.9-2.7-1.3-5-1.2-2.3 0.2-4.9 0.9-7.8 2.2-0.4-0.1-0.8-0.1-1.2-0.1-3.9 0-6.8 1.4-10.4 3.6-3.3 2.1-6 4.6-8 9.4 3.2-2.9 7.3-5.7 10.4-7.2-0.3 0.3-0.9 1-2.2 2.3-3.5 3.4-4.5 5-5.7 7.1-1.7 2.6-2.8 5-3.5 7.2-0.7 2.1-1 4.1-1 5.9 0 1.7 0.4 3 1.4 3.8 2.3 2.3 6.2 2.2 11.5-0.4 2.3 1.2 4.9 1.8 7.6 1.8 3.6 0 6.9-1.1 9.8-3.2s4.9-5 6.1-8.3h-9.1c-0.7 1.1-1.5 2.2-2.7 2.9-1.1 0.7-2.4 1-3.8 1s-2.6-0.3-3.8-1c-1.1-0.7-2-1.6-2.7-2.8-0.6-1.1-1.1-2.2-1.1-3.4l14.8 0.2h8.5zm-33.1 11.5c-1.7-1.7-1.1-3.7 1.3-8.2 1.3 3.7 2.5 5.4 5.9 7.5-4 1.8-5.7 2.2-7.2 0.7zm28.2-30c0.7 0.4 1.4 1 1.7 1.8 0.3 0.7 0.2 1.2-0.6 3.4-2.3-2.8-2.9-3-6-4.6 3-1.2 3.8-1.2 4.9-0.6zm-18.4 13.7c0.2-1.8 1.1-3.4 2.5-4.7 1.3-1.3 2.9-1.8 4.8-1.8 1.8 0 3.4 0.5 4.8 1.8 1.4 1.2 2.1 2.9 2.2 4.7h-14.3z"/>
</svg>
