<?xml version="1.0" encoding="UTF-8"?>
<svg enable-background="new 0 0 58 58" version="1.1" viewBox="0 0 58 58" xmlns="http://www.w3.org/2000/svg">
 <polygon points="51.5 14 37.5 0 6.5 0 6.5 58 51.5 58" fill="#EDEADA"/>
 <g fill="#CEC9AE">
  <path d="m16.5 23h25c0.552 0 1-0.447 1-1s-0.448-1-1-1h-25c-0.552 0-1 0.447-1 1s0.448 1 1 1z"/>
  <path d="m16.5 15h10c0.552 0 1-0.447 1-1s-0.448-1-1-1h-10c-0.552 0-1 0.447-1 1s0.448 1 1 1z"/>
  <path d="m41.5 29h-25c-0.552 0-1 0.447-1 1s0.448 1 1 1h25c0.552 0 1-0.447 1-1s-0.448-1-1-1z"/>
  <path d="m41.5 37h-25c-0.552 0-1 0.447-1 1s0.448 1 1 1h25c0.552 0 1-0.447 1-1s-0.448-1-1-1z"/>
  <path d="m41.5 45h-25c-0.552 0-1 0.447-1 1s0.448 1 1 1h25c0.552 0 1-0.447 1-1s-0.448-1-1-1z"/>
 </g>
 <polygon points="37.5 0 37.5 14 51.5 14" fill="#CEC9AE"/>
</svg>
