<?xml version="1.0" encoding="UTF-8"?>
<svg enable-background="new 0 0 56 56" version="1.1" viewBox="0 0 56 56" xmlns="http://www.w3.org/2000/svg">
 <style type="text/css">.st0{fill:#607D8B;}
	.st1{fill:#42A5F5;}</style>
 <path class="st0" d="m22.8 46c-1 0-1.8-0.8-1.8-1.8v-32.4c0-1 0.8-1.8 1.8-1.8s1.8 0.8 1.8 1.8v32.4c0 1-0.8 1.8-1.8 1.8z"/>
 <path class="st0" d="m37.2 17.2c-1 0-1.8-0.8-1.8-1.8v-1.8h-25.6v1.8c0 1-0.8 1.8-1.8 1.8s-1.8-0.8-1.8-1.8v-3.6c0-1 0.8-1.8 1.8-1.8h29.3c1 0 1.8 0.8 1.8 1.8v3.6c-0.1 1-0.9 1.8-1.9 1.8z"/>
 <path class="st0" d="m26.4 46h-7.2c-1 0-1.8-0.8-1.8-1.8s0.8-1.8 1.8-1.8h7.2c1 0 1.8 0.8 1.8 1.8s-0.8 1.8-1.8 1.8z"/>
 <path class="st1" d="m33.6 33c-1 0-1.8-0.8-1.8-1.8v-3.2c0-1 0.8-1.8 1.8-1.8h14.4c1 0 1.8 0.8 1.8 1.8v2.7c0 1-0.8 1.8-1.8 1.8s-1.8-0.8-1.8-1.8v-0.9h-10.8v1.4c0 0.9-0.8 1.8-1.8 1.8z"/>
 <path class="st1" d="m40.8 46c-1 0-1.8-0.8-1.8-1.8v-16.2c0-1 0.8-1.8 1.8-1.8s1.8 0.8 1.8 1.8v16.2c0 1-0.8 1.8-1.8 1.8z"/>
 <path class="st1" d="m43.5 46h-5.4c-1 0-1.8-0.8-1.8-1.8s0.8-1.8 1.8-1.8h5.4c1 0 1.8 0.8 1.8 1.8s-0.8 1.8-1.8 1.8z"/>
</svg>
