<?xml version="1.0" encoding="UTF-8"?>
<svg width="48px" height="48px" version="1.1" viewBox="0 0 48 48" xmlns="http://www.w3.org/2000/svg">
 <path d="m32.5 13c-5.1992 0-9.5 1.1016-9.5 3v18c0 1.8008 4.3008 3 9.5 3s9.5-1.1992 9.5-3v-17.898c0-1.9023-4.3008-3.1016-9.5-3.1016z" fill="#FF80AB"/>
 <path d="m42 22.5v2.5c-2.6016 1.8984-7.6016 2-9.5 2s-6.6992-0.19922-9.5-1.6992v-2.8008c0 1.3984 4.3008 2.5 9.5 2.5s9.5-1.1016 9.5-2.5zm-9.5-3.5c-5.1992 0-9.5-1.1016-9.5-2.5v2.8008c2.8008 1.5 7.6016 1.6992 9.5 1.6992s6.8984-0.10156 9.5-2v-2.5c0 1.3984-4.3008 2.5-9.5 2.5zm0 12c-5.1992 0-9.5-1.1016-9.5-2.5v2.8008c2.8008 1.5 7.6016 1.6992 9.5 1.6992s6.8008-0.19922 9.5-2v-2.5c0 1.3984-4.3008 2.5-9.5 2.5z" fill="#EC407A"/>
 <path d="m27 42-21-4v-28l21-4z" fill="#C51162"/>
 <path d="m17.398 16.5c-1.0977 0.10156-2.1992 0.19922-3.2969 0.19922-1.4023 5-2.8008 10-4.1016 15 0.89844 0.10156 1.8008 0.10156 2.6992 0.19922 0.30078-1.0977 0.60156-2.1992 0.80078-3.3984 1.3984 0.10156 2.8984 0.10156 4.3008 0.10156 0.30078 1.1992 0.59766 2.3984 0.89844 3.5977 1.1016 0.10156 2.1016 0.19922 3.1992 0.30078-1.3984-5.3008-2.8984-10.699-4.5-16zm-3.1992 9.5c0.5-2.1992 1.1992-4.3984 1.5-6.6992 0.40234 2.3008 1.1016 4.3984 1.6016 6.6992h-3.1016z" fill="#fff"/>
</svg>
