<?xml version="1.0" encoding="UTF-8"?>
<svg width="48px" height="48px" version="1.1" viewBox="0 0 48 48" xmlns="http://www.w3.org/2000/svg">
 <path d="m41 10h-16v28h16c0.55469 0 1-0.44531 1-1v-26c0-0.55469-0.44531-1-1-1z" fill="#4CAF50"/>
 <g fill="#fff">
  <path d="m32 15h7v3h-7z"/>
  <path d="m32 25h7v3h-7z"/>
  <path d="m32 30h7v3h-7z"/>
  <path d="m32 20h7v3h-7z"/>
  <path d="m25 15h5v3h-5z"/>
  <path d="m25 25h5v3h-5z"/>
  <path d="m25 30h5v3h-5z"/>
  <path d="m25 20h5v3h-5z"/>
 </g>
 <path d="m27 42-21-4v-28l21-4z" fill="#2E7D32"/>
 <path d="m19.129 31-2.4102-4.5625c-0.09375-0.16797-0.1875-0.48047-0.28516-0.9375h-0.035156c-0.046875 0.21484-0.15625 0.54297-0.32422 0.98047l-2.4219 4.5195h-3.7578l4.4609-7-4.082-7h3.8359l2.0039 4.1953c0.15625 0.33203 0.29297 0.72656 0.41797 1.1797h0.039063c0.078125-0.26953 0.22656-0.67969 0.44141-1.2188l2.2266-4.1562h3.5156l-4.1992 6.9375 4.3125 7.0586h-3.7383z" fill="#fff"/>
</svg>
