<?xml version="1.0" encoding="UTF-8"?>
<svg width="48px" height="48px" version="1.1" viewBox="0 0 48 48" xmlns="http://www.w3.org/2000/svg">
 <path d="m21 31c0 1.1055 0.89453 2 2 2h17c1.1055 0 2-0.89453 2-2v-15c0-1.1055-0.89453-2-2-2h-17c-1.1055 0-2 0.89453-2 2z" fill="#03A9F4"/>
 <path d="m42 16.977v-0.97656c0-0.42969-0.13672-0.82422-0.36719-1.1484l-11.266 6.9336-7.5391-4.6562-0.70312 1.8711 8.4609 5z" fill="#B3E5FC"/>
 <path d="m27 41.461-21-4v-28l21-4z" fill="#0277BD"/>
 <path d="m21.215 18.312c-1.0977-1.2773-2.543-1.9141-4.3281-1.9141-1.8906 0-3.4062 0.66797-4.5508 2.0039-1.1445 1.3359-1.7227 3.0859-1.7227 5.2461 0 2.043 0.56641 3.7109 1.6914 4.9844 1.125 1.2734 2.5938 1.9102 4.3789 1.9102 1.8398 0 3.332-0.65234 4.4727-1.9766 1.1445-1.3125 1.7109-3.043 1.7109-5.1992 0-2.0859-0.55078-3.7734-1.6523-5.0547zm-2.1641 8.4219c-0.57031 0.76953-1.3398 1.1523-2.3164 1.1523-0.9375 0-1.6992-0.39453-2.2852-1.1875-0.57812-0.78516-0.86719-1.8594-0.86719-3.2109 0-1.3359 0.28906-2.4141 0.86719-3.2227 0.58594-0.8125 1.3711-1.2109 2.3555-1.2109 0.96484 0 1.7188 0.39062 2.2695 1.1758 0.55469 0.79688 0.83203 1.8945 0.83203 3.3086 0 1.3672-0.28906 2.4297-0.85547 3.1953z" fill="#fff"/>
</svg>
