<?xml version="1.0" encoding="UTF-8"?>
<svg width="48px" height="48px" enable-background="new 0 0 48 48" version="1.1" viewBox="0 0 48 48" xmlns="http://www.w3.org/2000/svg">
 <path d="m41 10h-16v28h16c0.553 0 1-0.447 1-1v-26c0-0.553-0.447-1-1-1z" fill="#FF8A65"/>
 <g fill="#FBE9E7">
  <rect x="24" y="29" width="14" height="2"/>
  <rect x="24" y="33" width="14" height="2"/>
  <path d="m30 15c-3.313 0-6 2.687-6 6s2.687 6 6 6 6-2.687 6-6h-6v-6z"/>
  <path d="m32 13v6h6c0-3.313-2.687-6-6-6z"/>
 </g>
 <polygon points="27 42 6 38 6 10 27 6" fill="#E64A19"/>
 <path d="m16.828 17h-4.828v14h3v-4.823h1.552c1.655 0 2.976-0.436 3.965-1.304 0.988-0.869 1.484-2.007 1.482-3.412 1e-3 -2.974-1.724-4.461-5.171-4.461zm-0.534 6.785h-1.294v-4.364h1.294c1.641 0 2.461 0.72 2.461 2.158 0 1.472-0.82 2.206-2.461 2.206z" fill="#fff"/>
</svg>
