<?xml version="1.0" encoding="UTF-8"?>
<svg width="48px" height="48px" version="1.1" viewBox="0 0 48 48" xmlns="http://www.w3.org/2000/svg">
 <path d="m41 10h-16v28h16c0.60156 0 1-0.39844 1-1v-26c0-0.60156-0.39844-1-1-1z" fill="#81C784"/>
 <path d="m39 23-4 4-4-4h3v-6h-7v-2h9v8zm-10 3-4 4 4 4 4-4z" fill="#fff"/>
 <path d="m27 42-21-4v-28l21-4z" fill="#43A047"/>
 <path d="m16.801 17h-4.8008v14h3v-4.8008h1.6016c1.6992 0 3-0.39844 4-1.3008 1-0.89844 1.5-2 1.5-3.3984-0.10156-3-1.8008-4.5-5.3008-4.5zm-0.5 6.8008h-1.3008v-4.4023h1.3008c1.5977 0 2.5 0.70312 2.5 2.2031s-0.90234 2.1992-2.5 2.1992z" fill="#fff"/>
</svg>
