<?xml version="1.0" encoding="UTF-8"?>
<svg width="48px" height="48px" version="1.1" viewBox="0 0 48 48" xmlns="http://www.w3.org/2000/svg">
 <path d="m41 10h-16v28h16c0.55469 0 1-0.44531 1-1v-26c0-0.55469-0.44531-1-1-1z" fill="#2196F3"/>
 <g fill="#fff">
  <path d="m25 15h14v2h-14z"/>
  <path d="m25 19h14v2h-14z"/>
  <path d="m25 23h14v2h-14z"/>
  <path d="m25 27h14v2h-14z"/>
  <path d="m25 31h14v2h-14z"/>
 </g>
 <path d="m27 42-21-4v-28l21-4z" fill="#0D47A1"/>
 <path d="m21.168 31.012h-2.7188l-1.8008-8.9883c-0.097657-0.47656-0.15625-0.99609-0.17578-1.5742h-0.03125c-0.042968 0.63672-0.10938 1.1602-0.19531 1.5742l-1.8516 8.9883h-2.8281l-2.8594-14.016h2.6758l1.5352 9.3281c0.0625 0.40625 0.11328 0.94141 0.14453 1.6094h0.042969c0.015625-0.5 0.097656-1.0508 0.22266-1.6445l1.9688-9.293h2.6211l1.7852 9.4062c0.0625 0.34766 0.12109 0.84375 0.17188 1.5078h0.03125c0.019531-0.51172 0.070313-1.0312 0.16016-1.5625l1.5-9.3516h2.4688z" fill="#fff"/>
</svg>
