<?xml version="1.0" encoding="UTF-8"?>
<svg enable-background="new 0 0 56 56" version="1.1" viewBox="0 0 56 56" xmlns="http://www.w3.org/2000/svg">
 <style type="text/css">.st0{fill:#F1C816;}</style>
 <path class="st0" d="m42.8 46h-29.6c-1.8 0-3.2-1.4-3.2-3.2v-29.6c0-1.8 1.4-3.2 3.2-3.2h29.7c1.8 0 3.2 1.4 3.2 3.2v29.7c-0.1 1.7-1.5 3.1-3.3 3.1z"/>
 <path d="m39 36.8c-0.3 0-0.5-0.2-0.5-0.5s0.2-0.5 0.5-0.5c1.6 0 2.9-1.3 2.9-2.9v-12c0-1.6-1.3-2.9-2.9-2.9h-22.1c-1.6 0-2.9 1.3-2.9 2.9v11.9c0 1.6 1.3 2.9 2.9 2.9 0.3 0 0.5 0.2 0.5 0.5s-0.2 0.5-0.5 0.5c-2.1 0-3.9-1.8-3.9-3.9v-11.9c0-2.1 1.8-3.9 3.9-3.9h22.2c2.1 0 3.9 1.8 3.9 3.9v11.9c0 2.3-1.8 4-4 4z"/>
 <path d="m35.5 39c-0.7 0-1.3-0.6-1.3-1.3v-14.6c0-0.7 0.6-1.3 1.3-1.3s1.3 0.6 1.3 1.3v14.4c0.1 0.8-0.6 1.5-1.3 1.5z"/>
 <path d="m30.5 39c-0.7 0-1.3-0.6-1.3-1.3v-8c0-0.7 0.6-1.3 1.3-1.3s1.3 0.6 1.3 1.3v8c0 0.6-0.6 1.3-1.3 1.3z"/>
 <path d="m25.5 39c-0.7 0-1.3-0.6-1.3-1.3v-9.4c0-0.7 0.6-1.3 1.3-1.3s1.3 0.6 1.3 1.3v9.4c0 0.6-0.6 1.3-1.3 1.3z"/>
 <path d="m20.5 39c-0.7 0-1.3-0.6-1.3-1.3v-4c0-0.7 0.6-1.3 1.3-1.3s1.3 0.6 1.3 1.3v4c0 0.6-0.6 1.3-1.3 1.3z"/>
</svg>
