<?xml version="1.0" encoding="UTF-8"?>
<svg enable-background="new 0 0 512 512" version="1.1" viewBox="0 0 512 512" xmlns="http://www.w3.org/2000/svg">
 <path d="m69.803 512h372.36c12.853 0 23.273-10.42 23.273-23.273v-309.71c-0.321 12.573-10.589 22.672-23.242 22.672h-155.18c-12.853 0-23.273-10.42-23.273-23.273v-155.15c0-9.413 5.669-17.9 14.367-21.501 2.991-1.238 6.136-1.8 9.247-1.753-0.115-3e-3 -0.226-0.019-0.341-0.019h-217.21c-12.853 0-23.273 10.42-23.273 23.273v465.46c0 12.852 10.42 23.272 23.273 23.272zm116.36-250.46c0-8.355 4.479-16.067 11.734-20.21 7.258-4.143 16.175-4.079 23.369 0.169l108.61 64.102c7.092 4.186 11.444 11.807 11.444 20.041s-4.352 15.857-11.444 20.041l-108.61 64.102c-3.648 2.154-7.737 3.232-11.829 3.232-3.98 0-7.962-1.019-11.54-3.063-7.255-4.143-11.734-11.857-11.734-20.21v-128.2z" fill="#E0E0E2"/>
 <path d="m197.9 409.96c3.578 2.042 7.559 3.063 11.54 3.063 4.091 0 8.181-1.078 11.829-3.232l108.61-64.102c7.092-4.186 11.444-11.807 11.444-20.041s-4.352-15.857-11.444-20.041l-108.61-64.102c-7.194-4.246-16.111-4.31-23.369-0.169-7.255 4.143-11.734 11.857-11.734 20.21v128.21c0 8.352 4.48 16.066 11.734 20.208z" fill="#57565C"/>
 <path d="m263.74 23.273v155.15c0 12.853 10.42 23.273 23.273 23.273h155.18c12.653 0 22.921-10.1 23.242-22.672 5e-3 -0.202 0.031-0.397 0.031-0.6 0-4.824-1.488-9.289-4-13.005-3e-3 -3e-3 -5e-3 -6e-3 -8e-3 -0.011-0.397-0.588-0.824-1.153-1.271-1.7-0.037-0.045-0.071-0.092-0.109-0.135-0.424-0.51-0.875-1.001-1.339-1.474-0.073-0.073-0.144-0.147-0.217-0.22-0.205-0.2-0.394-0.419-0.605-0.613l-154.45-154.45c-0.483-0.484-0.988-0.934-1.507-1.367-0.158-0.132-0.32-0.256-0.481-0.383-0.374-0.298-0.757-0.585-1.15-0.86-0.192-0.133-0.385-0.267-0.579-0.394-0.411-0.268-0.832-0.521-1.26-0.765-0.168-0.096-0.334-0.2-0.504-0.293-0.562-0.301-1.139-0.577-1.727-0.833-0.234-0.101-0.476-0.189-0.712-0.282-0.391-0.154-0.787-0.301-1.188-0.434-0.268-0.09-0.538-0.175-0.808-0.256-0.452-0.132-0.911-0.248-1.373-0.352-0.199-0.045-0.394-0.101-0.593-0.14-0.65-0.13-1.311-0.228-1.978-0.301-0.2-0.023-0.4-0.036-0.6-0.053-0.549-0.047-1.1-0.076-1.657-0.084-3.111-0.047-6.256 0.515-9.247 1.753-8.695 3.601-14.366 12.088-14.366 21.501z" fill="#C6C5CA"/>
</svg>
