<?xml version="1.0" encoding="UTF-8"?>
<svg enable-background="new 0 0 48 48" version="1.1" viewBox="0 0 48 48" xmlns="http://www.w3.org/2000/svg">
 <style type="text/css">.st0{fill:#E9E9E0;}
	.st1{fill:#D9D7CA;}
	.st2{fill:#556080;}
	.st3{fill:#FFFFFF;}
	.st4{fill:#C8BDB8;}</style>
 <path class="st0" d="m29.8 6h-18.7c-0.5 0-0.9 0.4-0.9 1.2v34.1c0 0.2 0.4 0.6 0.9 0.6h25.8c0.5 0 0.9-0.4 0.9-0.6v-27c0-0.4-0.1-0.6-0.2-0.7l-7.5-7.5s-0.2-0.1-0.3-0.1z"/>
 <polygon class="st1" points="30.1 6.1 30.1 13.7 37.7 13.7"/>
 <path class="st2" d="m36.9 42h-25.8c-0.5 0-0.9-0.4-0.9-0.9v-10h27.6v10c0 0.5-0.4 0.9-0.9 0.9z"/>
 <path class="st3" d="m22.2 33.6v0.9l-3.1 4.6-0.1 0.1h3.3v0.9h-4.3v-0.9l3.1-4.6 0.2-0.1h-3.3v-0.9h4.2z"/>
 <path class="st3" d="m24.8 40.1h-1.1v-6.5h1.1v6.5z"/>
 <path class="st3" d="m27.5 40.1h-1.1v-6.5h1.9c0.3 0 0.5 0 0.8 0.1s0.5 0.2 0.7 0.4 0.4 0.4 0.5 0.6 0.2 0.5 0.2 0.8-0.1 0.6-0.2 0.9-0.3 0.5-0.5 0.7-0.4 0.3-0.7 0.4-0.6 0.1-0.9 0.1h-0.8l0.1 2.5zm0-5.7v2.6h1c0.1 0 0.3 0 0.4-0.1 0.1 0 0.2-0.1 0.3-0.2s0.2-0.2 0.3-0.4 0.1-0.4 0.1-0.7v-0.4c0-0.1-0.1-0.3-0.2-0.4s-0.2-0.2-0.4-0.3-0.4-0.1-0.7-0.1h-0.8z"/>
 <path class="st4" d="m24.3 21.4v-1.3h1.3v-1.3h-1.3v-1.3h1.3v-1.3h-1.3v-1.2h1.3v-1.3h-1.3v-1.3h1.3v-1.3h-1.3v-1.2h-1.3v1.3h-1.3v1.3h1.3v1.3h-1.3v1.2h1.3v1.3h-1.3v1.3h1.3v1.3h-1.3v1.3h1.3v1.3h-2.6v3.2c0 1.8 1.4 3.2 3.2 3.2s3.2-1.4 3.2-3.2v-3.2h-2.5zm1.3 3.2c0 1.1-0.9 1.9-1.9 1.9s-1.9-0.9-1.9-1.9v-1.9h3.9v1.9z"/>
 <path class="st4" d="M23,25.3h1.3c0.4,0,0.6-0.3,0.6-0.6S24.7,24,24.3,24H23c-0.4,0-0.6,0.3-0.6,0.6S22.7,25.3,23,25.3z"/>
</svg>
