<?xml version="1.0" encoding="utf-8"?>
<!-- Generator: Adobe Illustrator 25.0.0, SVG Export Plug-In . SVG Version: 6.00 Build 0)  -->
<svg version="1.1" id="Layer_1" xmlns="http://www.w3.org/2000/svg" xmlns:xlink="http://www.w3.org/1999/xlink" x="0px" y="0px"
	 viewBox="0 0 48 48" style="enable-background:new 0 0 48 48;" xml:space="preserve">
<style type="text/css">
	.st0{fill:#C62828;}
	.st1{fill:#FFFFFF;}
</style>
<path class="st0" d="M45,48H3c-1.7,0-3-1.3-3-3V3c0-1.7,1.3-3,3-3h42c1.7,0,3,1.3,3,3v42C48,46.7,46.7,48,45,48z"/>
<path class="st1" d="M41.5,23.4v1.1c0,0.1,0,0.1,0,0.2c-0.1,0.5-0.1,1-0.2,1.5c-0.3,1.6-0.9,3.1-1.7,4.5c-1.3,2.1-3.1,3.7-5.3,4.8
	c-1.3,0.6-2.7,1-4.1,1.2c-0.3,0-0.6,0.1-1,0.1H16.9c-0.1,0-0.1,0-0.2,0c-1.2-0.1-2.4-0.4-3.6-0.9c-2.5-1.1-4.3-2.8-5.5-5.2
	c-0.5-1.1-0.9-2.2-1-3.4c0-0.3-0.1-0.6-0.1-0.9v-1.1c0-0.1,0-0.1,0-0.2c0.1-1.1,0.3-2.1,0.7-3.1c1-2.7,2.9-4.7,5.5-5.9
	c1.3-0.7,2.8-1,4.3-1.1c0.7,0,1.5,0,2.2,0.1c0.1,0,0.2,0,0.2-0.1c1-1.1,2.2-1.9,3.6-2.6c1.3-0.6,2.7-1,4.1-1.2c0.3,0,0.7-0.1,1-0.1
	h1c0.1,0,0.1,0,0.2,0c0.5,0.1,1,0.1,1.6,0.2c1.6,0.3,3.1,0.8,4.5,1.7c2.1,1.3,3.7,3.1,4.8,5.3c0.6,1.3,1,2.7,1.2,4.1
	C41.4,22.8,41.5,23.1,41.5,23.4 M21.9,16C22,16.1,22,16.1,21.9,16c0.8,0.4,1.4,0.8,2.1,1.3c0,0,0.1,0,0.2,0c1.8-1.1,3.7-1.5,5.8-1.1
	c2,0.4,3.7,1.4,5,3c1.4,1.8,2,3.9,1.6,6.2c-0.3,1.5-0.9,2.9-1.9,4.1c-1.9,2.1-4.3,3-7.2,2.6c-1.7-0.2-3.3-1-4.5-2.2
	c-1.6-1.6-3.2-3.2-4.8-4.8c-0.2-0.2-0.5-0.4-0.8-0.4c-0.5-0.1-1,0.2-1.3,0.7c-0.2,0.4-0.2,0.9,0.3,1.3c1.8,1.7,3.6,3.5,5.4,5.2
	c0.3,0.3,0.6,0.6,1,0.8c1.3,0.9,2.8,1.5,4.4,1.7c1.3,0.2,2.5,0.1,3.7-0.1c2.4-0.5,4.3-1.7,5.8-3.5c1.3-1.5,2-3.3,2.3-5.2
	c0.2-1.1,0.1-2.2-0.1-3.4c-0.4-1.8-1.1-3.4-2.4-4.8c-2.4-2.6-5.3-3.8-8.9-3.5c-1.4,0.1-2.6,0.5-3.9,1.1C23.1,15.2,22.5,15.6,21.9,16
	 M21.1,34.4c0,0-0.1-0.1-0.1-0.1c-0.7-0.7-1.5-1.4-2.2-2.1C18.6,32,18.5,32,18.3,32c-0.7,0-1.5,0-2.2-0.1c-3.6-0.8-5.7-4.7-4.4-8.1
	c1-2.7,3.9-4.3,6.8-3.8c1.3,0.2,2.4,0.8,3.3,1.7c1.1,1.1,2.3,2.3,3.4,3.4c0.3,0.3,0.6,0.4,0.9,0.3c0.5-0.1,0.8-0.3,1-0.7
	c0.2-0.4,0.1-0.9-0.3-1.2c-1.2-1.2-2.4-2.4-3.6-3.6c-2.4-2.2-5.2-2.9-8.4-1.9c-4.2,1.3-6.7,5.6-5.7,9.8c0.9,3.9,4.3,6.6,8.3,6.6
	c1.1,0,2.2,0,3.4,0C20.9,34.4,21,34.4,21.1,34.4"/>
</svg>
