<?xml version="1.0" encoding="utf-8"?>
<!-- Generator: Adobe Illustrator 25.0.0, SVG Export Plug-In . SVG Version: 6.00 Build 0)  -->
<svg version="1.1" id="Layer_1" xmlns="http://www.w3.org/2000/svg" xmlns:xlink="http://www.w3.org/1999/xlink" x="0px" y="0px"
	 viewBox="0 0 48 48" style="enable-background:new 0 0 48 48;" xml:space="preserve">
<style type="text/css">
	.st0{fill:#00C8F6;}
</style>
<g>
	<path class="st0" d="M30.7,17.9c-1.3-1.2-2.9-1.7-4.6-1.7c-1.8,0-3.4,0.5-4.6,1.7c-1.3,1.2-2.2,2.8-2.4,4.5h13.7
		C32.7,20.6,32.1,19,30.7,17.9z"/>
	<path class="st0" d="M36.8,9.2c-1.1-0.6-1.8-0.6-4.7,0.6c3,1.5,3.5,1.7,5.7,4.4c0.8-2.1,0.9-2.6,0.6-3.3
		C38.1,10.2,37.4,9.6,36.8,9.2z"/>
	<path class="st0" d="M11,30.1c-2.3,4.3-2.9,6.2-1.2,7.9c1.4,1.4,3.1,1.1,6.9-0.7C13.4,35.3,12.2,33.7,11,30.1z"/>
	<path class="st0" d="M45,0H3C1.3,0,0,1.3,0,3v42c0,1.7,1.3,3,3,3h42c1.7,0,3-1.3,3-3V3C48,1.3,46.7,0,45,0z M41.5,27h-8.1
		l-14.2-0.2c0,1.1,0.5,2.2,1.1,3.3c0.7,1.1,1.5,2,2.6,2.7c1.1,0.7,2.3,1,3.6,1s2.6-0.3,3.6-1c1.1-0.7,1.9-1.7,2.6-2.8h8.7
		c-1.1,3.2-3.1,5.9-5.8,7.9c-2.8,2-5.9,3.1-9.4,3.1c-2.6,0-5.1-0.6-7.3-1.7c-5.1,2.5-8.8,2.6-11,0.4c-1-0.8-1.3-2-1.3-3.6
		c0-1.7,0.3-3.6,1-5.7c0.7-2.1,1.7-4.4,3.4-6.9c1.1-2,2.1-3.5,5.5-6.8c1.2-1.2,1.8-1.9,2.1-2.2c-3,1.4-6.9,4.1-10,6.9
		c1.9-4.6,4.5-7,7.7-9c3.4-2.1,6.2-3.4,10-3.4c0.4,0,0.8,0,1.1,0.1C30,7.7,32.5,7,34.7,6.8c2.2-0.1,3.8,0.3,4.8,1.1
		c1.9,1.9,2,4.9,0.5,8.9c1.4,2.5,1.5,5.3,1.5,8.1C41.5,25.7,41.6,26.4,41.5,27z"/>
</g>
</svg>
