<?xml version="1.0" encoding="utf-8"?>
<!-- Generator: Adobe Illustrator 25.0.0, SVG Export Plug-In . SVG Version: 6.00 Build 0)  -->
<svg version="1.1" id="Layer_1" xmlns="http://www.w3.org/2000/svg" xmlns:xlink="http://www.w3.org/1999/xlink" x="0px" y="0px"
	 viewBox="0 0 48 48" style="enable-background:new 0 0 48 48;" xml:space="preserve">
<style type="text/css">
	.st0{fill:#4C4C4C;}
	.st1{fill:#161616;}
	.st2{fill:#F9B767;}
	.st3{fill:#14C4BB;}
	.st4{fill:#F96982;}
	.st5{fill:#EF9D45;}
	.st6{fill:#E2E2E2;}
</style>
<path class="st0" d="M45,48H3c-1.7,0-3-1.3-3-3V3c0-1.7,1.3-3,3-3h42c1.7,0,3,1.3,3,3v42C48,46.7,46.7,48,45,48z"/>
<path class="st1" d="M48,8.7H0V6.9h48V8.7z"/>
<path class="st2" d="M0,7.2V3c0-1.7,1.3-3,3-3h42c1.7,0,3,1.3,3,3v4.2H0z"/>
<path class="st0" d="M32.3,4.4H6.4C6,4.4,5.7,4.1,5.7,3.7S6,3.1,6.4,3.1h25.9c0.4,0,0.7,0.3,0.7,0.7C33.1,4,32.7,4.4,32.3,4.4z"/>
<path class="st3" d="M35.7,4.3c-0.4,0-0.7-0.3-0.7-0.7V3.5c0-0.4,0.3-0.7,0.7-0.7c0.4,0,0.7,0.3,0.7,0.7v0.1
	C36.5,4,36.1,4.3,35.7,4.3z"/>
<path class="st4" d="M38.7,4.3C38.3,4.3,38,4,38,3.6V3.5c0-0.4,0.3-0.7,0.7-0.7c0.4,0,0.7,0.3,0.7,0.7v0.1C39.3,4,39.1,4.3,38.7,4.3
	z"/>
<path class="st5" d="M41.6,4.3c-0.4,0-0.7-0.3-0.7-0.7V3.5c0-0.4,0.3-0.7,0.7-0.7c0.4,0,0.7,0.3,0.7,0.7v0.1C42.3,4,42,4.3,41.6,4.3
	z"/>
<g>
	<path class="st6" d="M3.3,29.7c-0.4,0-0.7-0.3-0.7-0.7v-0.1c0-0.4,0.3-0.7,0.7-0.7s0.7,0.3,0.7,0.7V29C4.1,29.4,3.8,29.7,3.3,29.7z
		"/>
	<path class="st6" d="M6.4,29.7c-0.4,0-0.7-0.3-0.7-0.7v-0.1c0-0.4,0.3-0.7,0.7-0.7s0.7,0.3,0.7,0.7V29C7.3,29.4,6.9,29.7,6.4,29.7z
		"/>
	<path class="st6" d="M9.7,29.7c-0.4,0-0.7-0.3-0.7-0.7v-0.1c0-0.4,0.3-0.7,0.7-0.7s0.7,0.3,0.7,0.7V29
		C10.5,29.4,10.1,29.7,9.7,29.7z"/>
	<path class="st6" d="M45.1,17.6H3.3c-0.4,0-0.9-0.4-0.9-0.9s0.4-0.9,0.9-0.9H45c0.4,0,0.9,0.4,0.9,0.9S45.6,17.6,45.1,17.6z"/>
	<path class="st6" d="M45.1,24.1H3.3c-0.4,0-0.9-0.4-0.9-0.9s0.4-0.9,0.9-0.9H45c0.4,0,0.9,0.4,0.9,0.9
		C45.9,23.8,45.6,24.1,45.1,24.1z"/>
</g>
</svg>
