<?xml version="1.0" encoding="utf-8"?>
<!-- Generator: Adobe Illustrator 25.0.0, SVG Export Plug-In . SVG Version: 6.00 Build 0)  -->
<svg version="1.1" id="Layer_1" xmlns="http://www.w3.org/2000/svg" xmlns:xlink="http://www.w3.org/1999/xlink" x="0px" y="0px"
	 viewBox="0 0 48 48" style="enable-background:new 0 0 48 48;" xml:space="preserve">
<style type="text/css">
	.st0{fill:#EDEADA;}
	.st1{fill:#CEC9AE;}
</style>
<path class="st0" d="M45,48H3c-1.7,0-3-1.3-3-3V3c0-1.7,1.3-3,3-3h42c1.7,0,3,1.3,3,3v42C48,46.7,46.7,48,45,48z"/>
<g>
	<path class="st1" d="M9.3,16.2h29.4c0.6,0,1.2-0.5,1.2-1.2c0-0.7-0.5-1.2-1.2-1.2H9.3c-0.6,0-1.2,0.5-1.2,1.2
		C8.1,15.7,8.6,16.2,9.3,16.2z"/>
	<path class="st1" d="M9.3,6.8h11.8c0.6,0,1.2-0.5,1.2-1.2s-0.5-1.2-1.2-1.2H9.3C8.6,4.5,8.1,5,8.1,5.6S8.6,6.8,9.3,6.8z"/>
	<path class="st1" d="M38.7,23.3H9.3c-0.6,0-1.2,0.5-1.2,1.2c0,0.7,0.5,1.2,1.2,1.2h29.4c0.6,0,1.2-0.5,1.2-1.2
		C39.9,23.8,39.4,23.3,38.7,23.3z"/>
	<path class="st1" d="M38.7,32.7H9.3c-0.6,0-1.2,0.5-1.2,1.2c0,0.7,0.5,1.2,1.2,1.2h29.4c0.6,0,1.2-0.5,1.2-1.2
		C39.9,33.2,39.4,32.7,38.7,32.7z"/>
	<path class="st1" d="M38.7,42.1H9.3c-0.6,0-1.2,0.5-1.2,1.2s0.5,1.2,1.2,1.2h29.4c0.6,0,1.2-0.5,1.2-1.2S39.4,42.1,38.7,42.1z"/>
</g>
<path class="st1" d="M36.4,0v11.6H48V3c0-1.7-1.3-3-3-3H36.4z"/>
</svg>
