<?xml version="1.0" encoding="utf-8"?>
<!-- Generator: Adobe Illustrator 25.0.0, SVG Export Plug-In . SVG Version: 6.00 Build 0)  -->
<svg version="1.1" id="Layer_1" xmlns="http://www.w3.org/2000/svg" xmlns:xlink="http://www.w3.org/1999/xlink" x="0px" y="0px"
	 viewBox="0 0 48 48" style="enable-background:new 0 0 48 48;" xml:space="preserve">
<style type="text/css">
	.st0{fill:#F2F2F2;}
	.st1{fill:#607D8B;}
	.st2{fill:#42A5F5;}
</style>
<path class="st0" d="M45,48H3c-1.7,0-3-1.3-3-3V3c0-1.7,1.3-3,3-3h42c1.7,0,3,1.3,3,3v42C48,46.7,46.7,48,45,48z"/>
<path class="st1" d="M31.5,9.6H7.9c-0.8,0-1.4,0.6-1.4,1.4v2.9c0,0.8,0.6,1.4,1.4,1.4s1.4-0.6,1.4-1.4v-1.4h9v23.1h-1.4
	c-0.8,0-1.4,0.6-1.4,1.4s0.6,1.4,1.4,1.4h5.8c0.8,0,1.4-0.6,1.4-1.4s-0.6-1.4-1.4-1.4h-1.4V12.4h8.7v1.4c0,0.8,0.6,1.4,1.4,1.4
	s1.4-0.6,1.5-1.4V11C32.9,10.2,32.3,9.6,31.5,9.6z"/>
<path class="st2" d="M40.1,22.6H28.5c-0.8,0-1.4,0.6-1.4,1.4v2.6c0,0.8,0.6,1.4,1.4,1.4s1.4-0.7,1.4-1.4v-1.1h2.9v10.1h-0.7
	c-0.8,0-1.4,0.6-1.4,1.4s0.6,1.4,1.4,1.4h4.3c0.8,0,1.4-0.6,1.4-1.4s-0.6-1.4-1.4-1.4h-0.7V25.4h2.9v0.7c0,0.8,0.6,1.4,1.4,1.4
	s1.4-0.6,1.4-1.4V24C41.5,23.2,40.9,22.6,40.1,22.6z"/>
</svg>
