<?xml version="1.0" encoding="utf-8"?>
<!-- Generator: Adobe Illustrator 25.0.0, SVG Export Plug-In . SVG Version: 6.00 Build 0)  -->
<svg version="1.1" id="Layer_1" xmlns="http://www.w3.org/2000/svg" xmlns:xlink="http://www.w3.org/1999/xlink" x="0px" y="0px"
	 viewBox="0 0 48 48" style="enable-background:new 0 0 48 48;" xml:space="preserve">
<style type="text/css">
	.st0{fill:#F57C00;}
	.st1{fill:#FFF9C4;}
	.st2{fill:#942A09;}
	.st3{fill:#BF360C;}
</style>
<path class="st0" d="M45,48H3c-1.7,0-3-1.3-3-3V3c0-1.7,1.3-3,3-3h42c1.7,0,3,1.3,3,3v42C48,46.7,46.7,48,45,48z"/>
<g>
	<path class="st1" d="M40.3,16.4c0,1.9-1.6,3.5-3.5,3.5c-1.9,0-3.5-1.6-3.5-3.5s1.6-3.5,3.5-3.5C38.8,12.9,40.3,14.5,40.3,16.4z"/>
	<path class="st2" d="M19.3,16.4L6.5,35.1h25.7L19.3,16.4z"/>
	<path class="st3" d="M32.2,23.4l-9.3,11.7h18.7L32.2,23.4z"/>
</g>
</svg>
