<?xml version="1.0" encoding="utf-8"?>
<!-- Generator: Adobe Illustrator 25.0.0, SVG Export Plug-In . SVG Version: 6.00 Build 0)  -->
<svg version="1.1" id="Layer_1" xmlns="http://www.w3.org/2000/svg" xmlns:xlink="http://www.w3.org/1999/xlink" x="0px" y="0px"
	 viewBox="0 0 48 48" style="enable-background:new 0 0 48 48;" xml:space="preserve">
<style type="text/css">
	.st0{fill:#891724;}
	.st1{fill:#CB4E60;}
	.st2{fill:#B02233;}
	.st3{opacity:0.1;}
	.st4{fill:#B6283D;}
	.st5{fill:#FFFFFF;}
</style>
<path class="st0" d="M45,48H3c-1.7,0-3-1.3-3-3V3c0-1.7,1.3-3,3-3h42c1.7,0,3,1.3,3,3v42C48,46.7,46.7,48,45,48z"/>
<path class="st1" d="M48,16H0V3c0-1.7,1.3-3,3-3h42c1.7,0,3,1.3,3,3V16z"/>
<path class="st2" d="M48,32H0V16h48V32z"/>
<path class="st3" d="M35.6,39.4H12.4c-2.1,0-3.8-1.7-3.8-3.8V12.4c0-2.1,1.7-3.8,3.8-3.8h23.2c2.1,0,3.8,1.7,3.8,3.8v23.2
	C39.4,37.7,37.7,39.4,35.6,39.4z"/>
<path class="st4" d="M35.5,38.5h-23c-1.7,0-3-1.3-3-3v-23c0-1.7,1.3-3,3-3h23c1.7,0,3,1.3,3,3v23C38.5,37.2,37.2,38.5,35.5,38.5z"/>
<g>
	<g>
		<path class="st5" d="M32,32h-3.5l-1.4-3.6h-6.4L19.4,32H16L22.2,16h3.4L32,32z M26.1,25.7l-2.2-5.9l-2.2,5.9H26.1z"/>
	</g>
</g>
</svg>
