<?xml version="1.0" encoding="utf-8"?>
<!-- Generator: Adobe Illustrator 25.0.0, SVG Export Plug-In . SVG Version: 6.00 Build 0)  -->
<svg version="1.1" id="Layer_1" xmlns="http://www.w3.org/2000/svg" xmlns:xlink="http://www.w3.org/1999/xlink" x="0px" y="0px"
	 viewBox="0 0 48 48" style="enable-background:new 0 0 48 48;" xml:space="preserve">
<style type="text/css">
	.st0{fill:#185C37;}
	.st1{fill:#21A366;}
	.st2{fill-rule:evenodd;clip-rule:evenodd;fill:#107C41;}
	.st3{fill:#33C481;}
	.st4{opacity:0.1;}
	.st5{fill:#107C41;}
	.st6{fill:#FFFFFF;}
</style>
<path class="st0" d="M45,48H3c-1.7,0-3-1.3-3-3V3c0-1.7,1.3-3,3-3h42c1.7,0,3,1.3,3,3v42C48,46.7,46.7,48,45,48z"/>
<path class="st1" d="M24,0H3C1.3,0,0,1.3,0,3v9l24,12l12,4.3L48,24V12L24,0z"/>
<path class="st2" d="M0,12h24v12H0V12z"/>
<path class="st3" d="M45.3,0H24v12h24V2.7C48,1.2,46.8,0,45.3,0L45.3,0z"/>
<path class="st2" d="M24,24h24v12H24V24z"/>
<path class="st4" d="M5.1,11.1h25.8c1.4,0,2.6,1.2,2.6,2.6v25.8c0,1.4-1.2,2.6-2.6,2.6H5.1c-1.4,0-2.6-1.2-2.6-2.6V13.7
	C2.5,12.2,3.7,11.1,5.1,11.1L5.1,11.1z"/>
<g>
	<path class="st5" d="M6.6,12.9h22.9c1.3,0,2.3,1,2.3,2.3V38c0,1.3-1,2.3-2.3,2.3H6.6c-1.3,0-2.3-1-2.3-2.3V15.1
		C4.3,13.9,5.3,12.9,6.6,12.9L6.6,12.9z"/>
	<path class="st6" d="M10.4,35.1l5.5-8.6L10.8,18h4.1l2.8,5.5c0.3,0.5,0.4,0.9,0.5,1.2h0c0.2-0.4,0.4-0.8,0.6-1.2l3-5.4h3.8
		l-5.2,8.5l5.3,8.6h-4l-3.2-6c-0.2-0.3-0.3-0.5-0.4-0.8h0c-0.1,0.3-0.2,0.5-0.4,0.8l-3.3,6L10.4,35.1z"/>
</g>
</svg>
