<?xml version="1.0" encoding="utf-8"?>
<!-- Generator: Adobe Illustrator 25.0.0, SVG Export Plug-In . SVG Version: 6.00 Build 0)  -->
<svg version="1.1" id="Layer_1" xmlns="http://www.w3.org/2000/svg" xmlns:xlink="http://www.w3.org/1999/xlink" x="0px" y="0px"
	 viewBox="0 0 48 48" style="enable-background:new 0 0 48 48;" xml:space="preserve">
<style type="text/css">
	.st0{fill:#B3E5FC;}
	.st1{fill:#0364B8;}
	.st2{fill:#28A8EA;}
	.st3{fill-rule:evenodd;clip-rule:evenodd;fill:#0078D4;}
	.st4{fill-rule:evenodd;clip-rule:evenodd;fill:#50D9FF;}
	.st5{fill:none;}
	.st6{fill-rule:evenodd;clip-rule:evenodd;fill:#064A8C;}
	.st7{fill:#0A2767;}
	.st8{opacity:0.1;}
	.st9{fill:#0078D4;}
	.st10{fill:#FFFFFF;}
	.st11{fill:#0A2767;fill-opacity:0.498;}
	.st12{fill:#1490DF;}
	.st13{fill-opacity:4.705900e-02;}
	.st14{fill-opacity:9.803900e-02;}
</style>
<path class="st0" d="M45,48H3c-1.7,0-3-1.3-3-3V3c0-1.7,1.3-3,3-3h42c1.7,0,3,1.3,3,3v42C48,46.7,46.7,48,45,48z"/>
<path class="st1" d="M48,7.3H0V3c0-1.7,1.3-3,3-3h42c1.7,0,3,1.3,3,3V7.3z"/>
<g>
	<g>
		<path class="st2" d="M33.6,7.3H16.8l-4.9,6.8l4.9,6.8l16.8,13.6H48V20.9L33.6,7.3z"/>
	</g>
	<path class="st3" d="M0,7.3h16.8v13.6H0V7.3z"/>
	<path class="st4" d="M33.6,7.3H48v13.6H33.6V7.3z"/>
	<path class="st1" d="M33.6,34.4L16.8,20.9H0v13.6L16.8,48l16.8,0V34.4z"/>
	<path class="st5" d="M0.1,7.3H48"/>
	<path class="st3" d="M16.8,20.9h16.8v13.6H16.8V20.9z"/>
	<path class="st6" d="M0,34.4h16.8V48H3c-1.7,0-3-1.3-3-3V34.4z"/>
	<path class="st3" d="M33.6,34.4H48V45c0,1.7-1.3,3-3,3H33.6V34.4z"/>
</g>
<path class="st7" d="M41.5,26.2c0.2-0.7,0.4-1.4,0.5-2.1c0-0.4-0.2-0.7-0.5-0.9l0,0l0,0L25.3,14c-0.1,0-0.1-0.1-0.2-0.1
	c-0.6-0.3-1.4-0.3-2,0c-0.1,0-0.1,0.1-0.2,0.1L6.6,23.2l0,0l0,0C6.2,23.4,6,23.7,6,24.1c0.1,0.7,0.3,1.4,0.5,2.1l17.2,12.6
	L41.5,26.2z"/>
<g>
	<path class="st8" d="M34.3,10.4H13.8c-1.8,0-3.3,1.5-3.3,3.3v20.5c0,1.8,1.5,3.3,3.3,3.3h20.5c1.8,0,3.3-1.5,3.3-3.3V13.7
		C37.6,11.9,36.1,10.4,34.3,10.4z"/>
	<g>
		<path class="st9" d="M14.1,11.9h20c1.1,0,2,0.9,2,2v20c0,1.1-0.9,2-2,2h-20c-1.1,0-2-0.9-2-2v-20C12.1,12.8,13,11.9,14.1,11.9z"/>
		<path class="st10" d="M17.9,20.1c0.5-1.1,1.4-2.1,2.5-2.7c1.2-0.7,2.5-1,3.9-1c1.3,0,2.5,0.3,3.6,0.9c1,0.6,1.9,1.5,2.4,2.6
			c0.6,1.2,0.9,2.5,0.8,3.8c0,1.4-0.3,2.8-0.9,4c-0.5,1.1-1.4,2.1-2.5,2.7c-1.1,0.7-2.4,1-3.8,1c-1.3,0-2.6-0.3-3.7-0.9
			c-1-0.6-1.9-1.5-2.4-2.6c-0.6-1.2-0.9-2.5-0.8-3.8C17,22.7,17.3,21.3,17.9,20.1L17.9,20.1z M20.5,26.5c0.3,0.7,0.8,1.3,1.4,1.8
			c0.6,0.4,1.4,0.7,2.2,0.7c0.8,0,1.6-0.2,2.3-0.7c0.6-0.5,1.1-1.1,1.3-1.8c0.3-0.8,0.4-1.6,0.4-2.5c0-0.9-0.1-1.7-0.4-2.5
			c-0.2-0.7-0.7-1.4-1.3-1.9c-0.7-0.5-1.5-0.7-2.3-0.7c-0.8,0-1.6,0.2-2.2,0.7c-0.6,0.5-1.1,1.1-1.4,1.8
			C19.9,23,19.9,24.8,20.5,26.5L20.5,26.5z"/>
	</g>
</g>
<path class="st11" d="M24.3,37.7L6.6,24.8l0.7-1.3c0,0,16.1,9.2,16.4,9.3c0.2,0.1,0.4,0.1,0.6,0c0.2-0.1,16.4-9.3,16.4-9.3l0.7,1.3
	L24.3,37.7z"/>
<path class="st12" d="M41.5,24.8L41.5,24.8L41.5,24.8L25.3,34c-0.7,0.4-1.5,0.5-2.2,0.1l5.7,7.6l12.4,2.7v0c0.6-0.4,0.9-1.1,0.9-1.8
	V23.9C42,24.3,41.8,24.6,41.5,24.8L41.5,24.8z"/>
<path class="st13" d="M42,42.3v-1.1l-15-8.5l-1.8,1c-0.7,0.4-1.5,0.5-2.2,0.1l5.7,7.6l12.4,2.7v0C41.7,43.7,42,43,42,42.3L42,42.3z"
	/>
<path class="st14" d="M42,43.2l-16.4-9.4L25.3,34c-0.7,0.4-1.5,0.5-2.2,0.1l5.7,7.6l12.4,2.7v0C41.5,44.2,41.8,43.7,42,43.2L42,43.2
	z"/>
<path class="st2" d="M6.6,24.8L6.6,24.8L6.6,24.8L6.6,24.8C6.2,24.6,6,24.2,6,23.9v18.8c0,1.2,1,2.2,2.2,2.2h31.5
	c0.2,0,0.4,0,0.6-0.1c0.1,0,0.2,0,0.3-0.1c0,0,0.1,0,0.1,0c0.1-0.1,0.2-0.1,0.3-0.2l0.1,0L6.6,24.8z"/>
</svg>
