<?xml version="1.0" encoding="utf-8"?>
<!-- Generator: Adobe Illustrator 25.0.0, SVG Export Plug-In . SVG Version: 6.00 Build 0)  -->
<svg version="1.1" id="Layer_1" xmlns="http://www.w3.org/2000/svg" xmlns:xlink="http://www.w3.org/1999/xlink" x="0px" y="0px"
	 viewBox="0 0 48 48" style="enable-background:new 0 0 48 48;" xml:space="preserve">
<style type="text/css">
	.st0{fill:#330C07;}
	.st1{fill:#E64A19;}
	.st2{fill:#962D11;}
	.st3{fill:url(#SVGID_1_);}
	.st4{fill:url(#SVGID_2_);}
	.st5{fill:none;}
</style>
<path class="st0" d="M45,48H3c-1.7,0-3-1.3-3-3V3c0-1.7,1.3-3,3-3h42c1.7,0,3,1.3,3,3v42C48,46.7,46.7,48,45,48z"/>
<g>
	<g id="Icons_-_Color_1_">
		<g id="Desktop_-_Full_Bleed_1_">
			<path class="st1" d="M25.3,8l2.4,5.6v19.5L25.3,40l9.1-2.6c1.4-0.4,2.4-1.7,2.4-3.1V13.7c0-1.5-1-2.7-2.4-3.1L25.3,8z"/>
			<path class="st2" d="M13.7,32.8l2.7-1.4c0.7-0.4,1.2-1.2,1.2-2V18.9c0-1,0.6-1.9,1.5-2.2l8.6-3.1v-2.4c0-1.5-1-2.8-2.4-3.2
				c-0.3-0.1-0.6-0.1-0.9-0.1l0,0c-0.6,0-1.2,0.2-1.7,0.4l-9.9,5.6c-1,0.6-1.6,1.7-1.6,2.8v14.6c0,0.9,0.8,1.7,1.7,1.7
				C13.2,33.1,13.5,33,13.7,32.8z"/>
			<path class="st2" d="M27.6,33.1H17.5c-0.9,0-1.7,0.8-1.7,1.7c0,0.6,0.3,1.2,0.9,1.5l6.1,3.4c0.5,0.3,1.1,0.4,1.6,0.4l0,0
				c0.3,0,0.6,0,0.9-0.1c1.4-0.4,2.4-1.7,2.4-3.2v-3.7H27.6z"/>
			
				<linearGradient id="SVGID_1_" gradientUnits="userSpaceOnUse" x1="25.6857" y1="1036.7714" x2="22.142" y2="1041.8308" gradientTransform="matrix(1 0 0 1 0 -1030)">
				<stop  offset="0" style="stop-color:#000000;stop-opacity:0.4"/>
				<stop  offset="1" style="stop-color:#000000;stop-opacity:0"/>
			</linearGradient>
			<path class="st3" d="M13.7,32.8l2.7-1.4c0.7-0.4,1.2-1.2,1.2-2V18.9c0-1,0.6-1.9,1.5-2.2l8.6-3.1v-2.4c0-1.5-1-2.8-2.4-3.2
				c-0.3-0.1-0.6-0.1-0.9-0.1l0,0c-0.6,0-1.2,0.2-1.7,0.4l-9.9,5.6c-1,0.6-1.6,1.7-1.6,2.8v14.6c0,0.9,0.8,1.7,1.7,1.7
				C13.2,33.1,13.5,33,13.7,32.8z"/>
			
				<linearGradient id="SVGID_2_" gradientUnits="userSpaceOnUse" x1="31.5421" y1="1067.093" x2="21.7594" y2="1066.2391" gradientTransform="matrix(1 0 0 1 0 -1030)">
				<stop  offset="0" style="stop-color:#000000;stop-opacity:0.4"/>
				<stop  offset="1" style="stop-color:#000000;stop-opacity:0"/>
			</linearGradient>
			<path class="st4" d="M27.6,33.1H17.5c-0.9,0-1.7,0.8-1.7,1.7c0,0.6,0.3,1.2,0.9,1.5l6.1,3.4c0.5,0.3,1.1,0.4,1.6,0.4l0,0
				c0.3,0,0.6,0,0.9-0.1c1.4-0.4,2.4-1.7,2.4-3.2v-3.7H27.6z"/>
			<rect x="6.9" y="6.9" class="st5" width="34.2" height="34.2"/>
		</g>
	</g>
</g>
</svg>
