<?xml version="1.0" encoding="iso-8859-1"?>
<!-- Generator: Adobe Illustrator 23.1.0, SVG Export Plug-In . SVG Version: 6.00 Build 0)  -->
<svg version="1.1" id="Layer_1" xmlns="http://www.w3.org/2000/svg" xmlns:xlink="http://www.w3.org/1999/xlink" x="0px" y="0px"
	 viewBox="0 0 48 48" style="enable-background:new 0 0 48 48;" xml:space="preserve">
<path style="fill:none;" d="M0,0h48v48H0V0z"/>
<path style="fill:#D35230;" d="M45.01,48H2.99C1.345,48,0,46.654,0,45.01V2.99C0,1.345,1.345,0,2.99,0h42.02
	C46.654,0,48,1.345,48,2.99v42.02C48,46.654,46.654,48,45.01,48z"/>
<path style="fill:#ED6C47;" d="M24,0H2.99C1.345,0,0,1.345,0,2.99V24h24V0z"/>
<path style="fill:#FF8F6B;" d="M24,0h21.01C46.654,0,48,1.345,48,2.99V24H24V0z"/>
<path style="opacity:0.1;enable-background:new    ;" d="M4.5,12.1h19.9c1.6,0,3,1.3,3,3V35c0,1.6-1.3,3-3,3H4.5c-1.6,0-3-1.3-3-3
	V15C1.5,13.4,2.9,12.1,4.5,12.1z"/>
<g>
	<path style="fill:#C43E1C;" d="M4.4,13h20c1.1,0,2,0.9,2,2v20c0,1.1-0.9,2-2,2h-20c-1.1,0-2-0.9-2-2V15C2.4,13.9,3.3,13,4.4,13z"/>
	<path style="fill:#F9F7F7;" d="M14.4,17.5c1.5-0.1,2.9,0.3,4.1,1.2c1,0.9,1.5,2.2,1.4,3.5c0,0.8-0.2,1.7-0.7,2.4
		c-0.5,0.8-1.2,1.4-2,1.8c-0.9,0.4-2,0.7-3,0.6h-2.9v5.5H8.4v-15H14.4z M11.4,24.5h2.5c0.8,0.1,1.6-0.2,2.2-0.7
		c0.5-0.3,0.8-0.9,0.8-1.5c0-1.7-1-2.5-2.9-2.5h-2.6V24.5z"/>
</g>
</svg>
