<?xml version="1.0" encoding="iso-8859-1"?>
<!-- Generator: Adobe Illustrator 23.1.0, SVG Export Plug-In . SVG Version: 6.00 Build 0)  -->
<svg version="1.1" id="Layer_1" xmlns="http://www.w3.org/2000/svg" xmlns:xlink="http://www.w3.org/1999/xlink" x="0px" y="0px"
	 viewBox="0 0 48 48" style="enable-background:new 0 0 48 48;" xml:space="preserve">
<path style="fill:#185C37;" d="M45.01,48H2.99C1.345,48,0,46.654,0,45.01V2.99C0,1.345,1.345,0,2.99,0h42.02
	C46.654,0,48,1.345,48,2.99v42.02C48,46.654,46.654,48,45.01,48z"/>
<rect y="16" style="fill:#21A366;" width="48" height="16"/>
<path style="fill:#33C481;" d="M48,16H0V2.99C0,1.345,1.345,0,2.99,0h42.02C46.654,0,48,1.345,48,2.99V16z"/>
<g style="opacity:0.1;">
	<path d="M13.4,7.2h21.3c3.2,0,5.8,2.6,5.8,5.8v21.3c0,3.2-2.6,5.8-5.8,5.8H13.4c-3.2,0-5.8-2.6-5.8-5.8V13.1
		C7.6,9.9,10.2,7.2,13.4,7.2z"/>
</g>
<g>
	<path style="fill:#138247;" d="M14.3,8.7h19.4c2.9,0,5.3,2.4,5.3,5.3v19.4c0,2.9-2.4,5.3-5.3,5.3H14.3c-2.9,0-5.3-2.4-5.3-5.3V14
		C9,11.1,11.4,8.7,14.3,8.7z"/>
</g>
<path style="fill:#F9F7F7;" d="M24.3,14.7c1.7-0.1,3.4,0.3,4.7,1.4c1.2,1,1.7,2.5,1.6,4c0,0.9-0.2,2-0.8,2.8
	c-0.6,0.9-1.4,1.6-2.3,2.1c-1,0.5-2.3,0.8-3.5,0.7h-3.4v6.4h-3.4V14.7H24.3z M20.8,22.8h2.9c0.9,0.1,1.8-0.2,2.5-0.8
	c0.6-0.3,0.9-1,0.9-1.7c0-2-1.2-2.9-3.4-2.9h-3v5.4H20.8z"/>
</svg>
