<?xml version="1.0" encoding="iso-8859-1"?>
<!-- Generator: Adobe Illustrator 23.1.0, SVG Export Plug-In . SVG Version: 6.00 Build 0)  -->
<svg version="1.1" id="Layer_1" xmlns="http://www.w3.org/2000/svg" xmlns:xlink="http://www.w3.org/1999/xlink" x="0px" y="0px"
	 viewBox="0 0 48 48" style="enable-background:new 0 0 48 48;" xml:space="preserve">
<path style="fill:#103F91;" d="M45.01,48H2.99C1.345,48,0,46.654,0,45.01V2.99C0,1.345,1.345,0,2.99,0h42.02
	C46.654,0,48,1.345,48,2.99v42.02C48,46.654,46.654,48,45.01,48z"/>
<rect y="24" style="fill:#185ABD;" width="48" height="12"/>
<rect y="12" style="fill:#2B7CD3;" width="48" height="12"/>
<path style="fill:#41A5EE;" d="M48,12H0V2.99C0,1.345,1.345,0,2.99,0h42.02C46.654,0,48,1.345,48,2.99V12z"/>
<g style="opacity:0.1;">
	<path d="M13.4,7.6h21.3c3.2,0,5.8,2.6,5.8,5.8v21.3c0,3.2-2.6,5.8-5.8,5.8H13.4c-3.2,0-5.8-2.6-5.8-5.8V13.4
		C7.6,10.3,10.2,7.6,13.4,7.6z"/>
</g>
<g>
	<path style="fill:#185ABD;" d="M14.3,9.1h19.4c2.9,0,5.3,2.4,5.3,5.3v19.4c0,2.9-2.4,5.3-5.3,5.3H14.3C11.4,39,9,36.6,9,33.8V14.4
		C9,11.4,11.4,9.1,14.3,9.1z"/>
</g>
<path style="fill:#FFFFFF;" d="M30.7,33.3h-3.2l-3.4-11.4l0,0l-3.5,11.4h-3.2L14,16.5h3.3l2.2,11.6h0.1l3.3-11.3h2.8l3.2,11.3H29
	l2-11.6h3L30.7,33.3z"/>
</svg>
