<?xml version="1.0" encoding="iso-8859-1"?>
<!-- Generator: Adobe Illustrator 23.1.0, SVG Export Plug-In . SVG Version: 6.00 Build 0)  -->
<svg version="1.1" id="Layer_1" xmlns="http://www.w3.org/2000/svg" xmlns:xlink="http://www.w3.org/1999/xlink" x="0px" y="0px"
	 viewBox="0 0 48 48" style="enable-background:new 0 0 48 48;" xml:space="preserve">
<path style="fill:#F7E8A9;" d="M45.01,48H2.99C1.345,48,0,46.654,0,45.01V2.99C0,1.345,1.345,0,2.99,0h42.02
	C46.654,0,48,1.345,48,2.99v42.02C48,46.654,46.654,48,45.01,48z"/>
<path style="fill:#E3A90F;" d="M45.01,48H27.9V2.99C27.9,1.339,29.239,0,30.89,0h14.12C46.654,0,48,1.345,48,2.99v42.02
	C48,46.654,46.654,48,45.01,48z"/>
<path style="fill:#F5D44C;" d="M31.51,48H17.39c-1.651,0-2.99-1.339-2.99-2.99V14.69c0-1.651,1.339-2.99,2.99-2.99h14.12
	c1.651,0,2.99,1.339,2.99,2.99v30.32C34.5,46.661,33.161,48,31.51,48z"/>
<path style="fill:#F8E382;" d="M17.11,48H2.99C1.345,48,0,46.654,0,45.01V25.79c0-1.651,1.339-2.99,2.99-2.99h14.12
	c1.651,0,2.99,1.339,2.99,2.99v19.22C20.1,46.661,18.761,48,17.11,48z"/>
</svg>
