<?xml version="1.0" encoding="iso-8859-1"?>
<!-- Generator: Adobe Illustrator 23.1.0, SVG Export Plug-In . SVG Version: 6.00 Build 0)  -->
<svg version="1.1" id="Layer_1" xmlns="http://www.w3.org/2000/svg" xmlns:xlink="http://www.w3.org/1999/xlink" x="0px" y="0px"
	 viewBox="0 0 48 48" style="enable-background:new 0 0 48 48;" xml:space="preserve">
<path style="fill:#E9E9E0;" d="M45.01,48H2.99C1.345,48,0,46.654,0,45.01V2.99C0,1.345,1.345,0,2.99,0h42.02
	C46.654,0,48,1.345,48,2.99v42.02C48,46.654,46.654,48,45.01,48z"/>
<path style="fill:#95A5A5;" d="M0,45.01V33.4h48v11.61c0,1.645-1.346,2.99-2.99,2.99H2.99C1.345,48,0,46.655,0,45.01z"/>
<g>
	<path style="fill:#FFFFFF;" d="M19.3,36.8v1h-2.6v7.7h-1.4v-7.7h-2.6v-1H19.3z"/>
	<path style="fill:#FFFFFF;" d="M24.9,41.2l2.2,4.2h-1.6l-1.4-3.3H24l-1.5,3.3h-1.6l2.2-4.2l-2.3-4.4h1.6l1.5,3.5H24l1.7-3.5h1.6
		L24.9,41.2z"/>
	<path style="fill:#FFFFFF;" d="M35.3,36.8v1h-2.6v7.7h-1.4v-7.7h-2.6v-1H35.3z"/>
</g>
<g>
	<path style="fill:#C8BDB8;" d="M12.3,5.8H5c-0.7,0-1.2-0.6-1.2-1.2S4.3,3.3,5,3.3h7.4c0.7,0,1.2,0.6,1.2,1.2S13,5.8,12.3,5.8z"/>
	<path style="fill:#C8BDB8;" d="M16,11.9H5c-0.7,0-1.2-0.6-1.2-1.2S4.3,9.4,5,9.4h11c0.7,0,1.2,0.6,1.2,1.2S16.7,11.9,16,11.9z"/>
	<path style="fill:#C8BDB8;" d="M20.9,11.9c-0.3,0-0.6-0.1-0.9-0.4c-0.2-0.2-0.4-0.5-0.4-0.9S19.7,10,20,9.7c0.4-0.5,1.3-0.5,1.7,0
		c0.2,0.2,0.4,0.6,0.4,0.9s-0.1,0.6-0.4,0.9C21.6,11.8,21.3,11.9,20.9,11.9z"/>
	<path style="fill:#C8BDB8;" d="M35.7,11.9h-9.8c-0.7,0-1.2-0.6-1.2-1.2s0.5-1.2,1.2-1.2h9.8c0.7,0,1.2,0.6,1.2,1.2
		S36.4,11.9,35.7,11.9z"/>
	<path style="fill:#C8BDB8;" d="M5,30.3c-0.3,0-0.6-0.1-0.9-0.4c-0.2-0.2-0.4-0.6-0.4-0.9s0.1-0.6,0.4-0.9c0.5-0.5,1.3-0.5,1.7,0
		C6,28.3,6.2,28.6,6.2,29c0,0.3-0.1,0.6-0.4,0.9C5.6,30.2,5.3,30.3,5,30.3z"/>
	<path style="fill:#C8BDB8;" d="M19.7,30.3H9.9c-0.7,0-1.2-0.6-1.2-1.2s0.5-1.2,1.2-1.2h9.8c0.7,0,1.2,0.6,1.2,1.2
		S20.4,30.3,19.7,30.3z"/>
	<path style="fill:#C8BDB8;" d="M43.1,11.9h-2.5c-0.7,0-1.2-0.6-1.2-1.2s0.5-1.2,1.2-1.2h2.5c0.7,0,1.2,0.6,1.2,1.2
		S43.7,11.9,43.1,11.9z"/>
	<path style="fill:#C8BDB8;" d="M32,18H5c-0.7,0-1.2-0.6-1.2-1.2c0-0.7,0.5-1.2,1.2-1.2h27c0.7,0,1.2,0.6,1.2,1.2
		C33.2,17.5,32.7,18,32,18z"/>
	<path style="fill:#C8BDB8;" d="M43.1,18h-7.4c-0.7,0-1.2-0.6-1.2-1.2c0-0.7,0.5-1.2,1.2-1.2h7.4c0.7,0,1.2,0.6,1.2,1.2
		C44.3,17.5,43.7,18,43.1,18z"/>
	<path style="fill:#C8BDB8;" d="M9.9,24.2H5c-0.7,0-1.2-0.6-1.2-1.2c0-0.7,0.5-1.2,1.2-1.2h4.9c0.7,0,1.2,0.6,1.2,1.2
		C11.1,23.6,10.5,24.2,9.9,24.2z"/>
	<path style="fill:#C8BDB8;" d="M27.1,24.2H14.8c-0.7,0-1.2-0.6-1.2-1.2c0-0.7,0.5-1.2,1.2-1.2h12.3c0.7,0,1.2,0.6,1.2,1.2
		C28.3,23.6,27.8,24.2,27.1,24.2z"/>
	<path style="fill:#C8BDB8;" d="M43.1,24.2H32c-0.7,0-1.2-0.6-1.2-1.2c0-0.7,0.5-1.2,1.2-1.2h11.1c0.7,0,1.2,0.6,1.2,1.2
		S43.7,24.2,43.1,24.2z"/>
</g>
<path style="fill:#D9D7CA;" d="M37.8,0v10.2H48V2.99C48,1.345,46.654,0,45.01,0H37.8z"/>
</svg>
