<?xml version="1.0" encoding="utf-8"?>
<!-- Generator: Adobe Illustrator 25.0.0, SVG Export Plug-In . SVG Version: 6.00 Build 0)  -->
<svg version="1.1" id="Layer_1" xmlns="http://www.w3.org/2000/svg" xmlns:xlink="http://www.w3.org/1999/xlink" x="0px" y="0px"
	 viewBox="0 0 48 48" style="enable-background:new 0 0 48 48;" xml:space="preserve">
<style type="text/css">
	.st0{fill:#E0E0E2;}
	.st1{fill:#57565C;}
</style>
<path class="st0" d="M45,48H3c-1.7,0-3-1.3-3-3V3c0-1.7,1.3-3,3-3h42c1.7,0,3,1.3,3,3v42C48,46.7,46.7,48,45,48z"/>
<path class="st1" d="M17.8,31.9c0.3,0.2,0.7,0.3,1.1,0.3c0.4,0,0.8-0.1,1.1-0.3l10.2-6c0.7-0.4,1.1-1.1,1.1-1.9s-0.4-1.5-1.1-1.9
	l-10.2-6c-0.7-0.4-1.5-0.4-2.2,0c-0.7,0.4-1.1,1.1-1.1,1.9v12C16.7,30.8,17.1,31.5,17.8,31.9L17.8,31.9z"/>
</svg>
