<?xml version="1.0" encoding="utf-8"?>
<!-- Generator: Adobe Illustrator 25.0.0, SVG Export Plug-In . SVG Version: 6.00 Build 0)  -->
<svg version="1.1" id="Layer_1" xmlns="http://www.w3.org/2000/svg" xmlns:xlink="http://www.w3.org/1999/xlink" x="0px" y="0px"
	 viewBox="0 0 48 48" style="enable-background:new 0 0 48 48;" xml:space="preserve">
<style type="text/css">
	.st0{fill:#E9E9E0;}
	.st1{fill:#D9D7CA;}
	.st2{fill:#556080;}
	.st3{fill:#FFFFFF;}
	.st4{fill:#C8BDB8;}
</style>
<path class="st0" d="M45,48H3c-1.7,0-3-1.3-3-3V3c0-1.7,1.3-3,3-3h42c1.7,0,3,1.3,3,3v42C48,46.7,46.7,48,45,48z"/>
<path class="st1" d="M37.9,0v10.1H48V3c0-1.7-1.3-3-3-3H37.9z"/>
<path class="st2" d="M45,48H3c-1.7,0-3-1.3-3-3V33.5h48V45C48,46.7,46.7,48,45,48z"/>
<g>
	<path class="st3" d="M21.3,36.8V38l-4.1,6.1L17,44.3h4.4v1.2h-5.7v-1.2l4.1-6.1l0.3-0.1h-4.4v-1.2H21.3z"/>
	<path class="st3" d="M24.7,45.5h-1.5v-8.7h1.5V45.5z"/>
	<path class="st3" d="M28.3,45.5h-1.5v-8.7h2.5c0.4,0,0.7,0,1.1,0.1c0.4,0.1,0.7,0.3,0.9,0.5c0.3,0.3,0.5,0.5,0.7,0.8
		c0.1,0.3,0.3,0.7,0.3,1.1s-0.1,0.8-0.3,1.2c-0.1,0.4-0.4,0.7-0.7,0.9c-0.3,0.3-0.5,0.4-0.9,0.5s-0.8,0.1-1.2,0.1h-1.1L28.3,45.5z
		 M28.3,37.9v3.5h1.3c0.1,0,0.4,0,0.5-0.1c0.1,0,0.3-0.1,0.4-0.3c0.1-0.1,0.3-0.3,0.4-0.5s0.1-0.5,0.1-0.9v-0.5
		c0-0.1-0.1-0.4-0.3-0.5c-0.1-0.1-0.3-0.3-0.5-0.4c-0.3-0.1-0.5-0.1-0.9-0.1C29.4,37.9,28.3,37.9,28.3,37.9z"/>
</g>
<g>
	<path class="st4" d="M24.9,20.5v-1.7h1.7v-1.7h-1.7v-1.7h1.7v-1.7h-1.7V12h1.7v-1.7h-1.7V8.5h1.7V6.8h-1.7V5.2h-1.7v1.7h-1.7v1.7
		h1.7v1.7h-1.7V12h1.7v1.7h-1.7v1.7h1.7v1.7h-1.7v1.7h1.7v1.7h-3.5v4.3c0,2.4,1.9,4.3,4.3,4.3s4.3-1.9,4.3-4.3v-4.3h-3.3L24.9,20.5z
		 M26.7,24.8c0,1.5-1.2,2.5-2.5,2.5s-2.5-1.2-2.5-2.5v-2.5h5.2v2.5H26.7z"/>
	<path class="st4" d="M23.2,25.7h1.7c0.5,0,0.8-0.4,0.8-0.8S25.5,24,24.9,24h-1.7c-0.5,0-0.8,0.4-0.8,0.8S22.8,25.7,23.2,25.7z"/>
</g>
</svg>
