<?xml version="1.0" encoding="UTF-8"?>
<svg width="24px" height="24px" enable-background="new 0 0 24 24" version="1.1" viewBox="0 0 24 24" xmlns="http://www.w3.org/2000/svg">
 <style type="text/css">.st0{fill:#D24077;}
	.st1{fill:#FFFFFF;}</style>
 <path class="st0" d="m17.1 7.1h-1v-0.7c0-0.5-0.4-0.9-0.9-0.9s-0.9 0.4-0.9 0.9v0.7h-4.6v-0.7c0-0.5-0.4-0.9-0.9-0.9s-0.9 0.4-0.9 0.9v0.7h-1c-0.5 0-0.9 0.4-0.9 0.9v2.7c0 0.4 0.3 0.7 0.7 0.7s0.7-0.3 0.7-0.7v-0.9h9v4.7c0 0.4 0.3 0.8 0.8 0.8 0.4 0 0.8-0.3 0.8-0.8v-6.5c0-0.5-0.4-0.9-0.9-0.9z"/>
 <path class="st1" d="m11.2 13.1h1.6s0.1 0 0.1-0.1v-1.6s0-0.1-0.1-0.1h-1.6s-0.1 0-0.1 0.1v1.6s0 0.1 0.1 0.1z"/>
 <path class="st1" d="m11.1 15.5s0 0.1 0.1 0.1h1.6s0.1 0 0.1-0.1v-1.6s0-0.1-0.1-0.1h-1.6s-0.1 0-0.1 0.1v1.6z"/>
 <path class="st1" d="m13.7 13.1h1.6s0.1 0 0.1-0.1v-1.6s0-0.1-0.1-0.1h-1.6s-0.1 0-0.1 0.1v1.6s0 0.1 0.1 0.1z"/>
 <path class="st1" d="m13.6 15.5s0 0.1 0.1 0.1h1.6s0.1 0 0.1-0.1v-1.6s0-0.1-0.1-0.1h-1.6s-0.1 0-0.1 0.1v1.6z"/>
 <path class="st1" d="m8.7 13.1h1.6s0.1 0 0.1-0.1v-1.6s0-0.1-0.1-0.1h-1.6s-0.1 0-0.1 0.1v1.6s0 0.1 0.1 0.1z"/>
 <path class="st1" d="m8.6 15.5s0 0.1 0.1 0.1h1.6s0.1 0 0.1-0.1v-1.6s0-0.1-0.1-0.1h-1.6s-0.1 0-0.1 0.1v1.6z"/>
 <path class="st1" d="m17.2 15.7c-0.4 0-0.7 0.3-0.7 0.7v0.6h-9v-4.3c0-0.4-0.3-0.7-0.7-0.7-0.5 0-0.8 0.3-0.8 0.7v4.9c0 0.5 0.4 0.9 0.9 0.9h10.2c0.5 0 0.9-0.4 0.9-0.9v-1.1c0-0.4-0.3-0.8-0.8-0.8z"/>
</svg>
